<svg width="1582.562500" height="1470.000000" viewBox="0 0 1582.56 1470" fill="none" xmlns="http://www.w3.org/2000/svg" xmlns:xlink="http://www.w3.org/1999/xlink">
	<desc>
			Created with Pixso.
	</desc>
	<defs/>
	<rect id="Rectangle 111002149" width="1440.000000" height="1470.000000" fill="#202027" fill-opacity="1.000000"/>
	<path id="Star 1" d="M1197.81 307.58L1009.31 247.71L1146.74 389.93L982.4 499.98L1179.29 481.21L1162.87 678.3L1270.93 512.67L1414.8 648.39L1352.69 460.63L1548.49 432.78L1362.96 364.27L1463.28 193.82L1294.04 296.16L1223.31 111.46L1197.81 307.58ZM1223.8 115.51L1198.65 308.89L1012.78 249.86L1148.29 390.1L986.25 498.61L1180.39 480.1L1164.18 674.44L1270.76 511.12L1412.6 644.95L1351.36 459.8L1544.43 432.35L1361.5 364.79L1460.41 196.73L1293.53 297.63L1223.8 115.51Z" fill="#BCEC30" fill-opacity="1.000000" fill-rule="evenodd"/>
	<path id="Star 11" d="M38.27 782.47L26.48 785.59L37.47 790.89L40.59 802.68L45.89 791.7L57.68 788.57L46.7 783.27L43.57 771.48L38.27 782.47ZM43.29 774.35L38.97 783.32L29.35 785.87L38.31 790.19L40.87 799.81L45.19 790.85L54.81 788.3L45.85 783.97L43.29 774.35Z" fill="#BCEC30" fill-opacity="1.000000" fill-rule="evenodd"/>
	<path id="Star 12" d="M63.12 843.72L42.59 849.17L61.72 858.4L67.17 878.94L76.4 859.8L96.94 854.35L77.8 845.12L72.35 824.59L63.12 843.72ZM72.08 827.46L63.82 844.57L45.45 849.44L62.57 857.7L67.44 876.07L75.7 858.95L94.07 854.08L76.95 845.82L72.08 827.46Z" fill="#BCEC30" fill-opacity="1.000000" fill-rule="evenodd"/>
</svg>
