<svg width="1440.000000" height="3500.000000" viewBox="0 0 1440 3500" fill="none" xmlns="http://www.w3.org/2000/svg" xmlns:xlink="http://www.w3.org/1999/xlink">
	<desc>
			Created with Pixso.
	</desc>
	<defs/>
	<rect id="Rectangle 111002146" width="1440.000000" height="3500.000000" fill="#202027" fill-opacity="1.000000"/>
	<path id="Star 6" d="M1349.17 153.4L1323.27 160.27L1347.4 171.91L1354.28 197.81L1365.92 173.68L1391.82 166.81L1367.68 155.16L1360.81 129.26L1349.17 153.4ZM1360.54 132.13L1349.87 154.25L1326.14 160.54L1348.25 171.21L1354.55 194.95L1365.22 172.83L1388.95 166.53L1366.84 155.87L1360.54 132.13Z" fill="#BCEC30" fill-opacity="1.000000" fill-rule="evenodd"/>
	<path id="Star 7" d="M1292.48 107.31L1279.17 110.43L1291.31 116.73L1294.43 130.04L1300.73 117.9L1314.04 114.77L1301.9 108.48L1298.77 95.16L1292.48 107.31ZM1298.42 98.02L1293.16 108.17L1282.03 110.79L1292.18 116.05L1294.79 127.18L1300.05 117.03L1311.19 114.41L1301.03 109.15L1298.42 98.02Z" fill="#BCEC30" fill-opacity="1.000000" fill-rule="evenodd"/>
	<path id="Star 8" d="M1344.18 3391.18L1319 3400.5L1344.18 3409.82L1353.5 3435L1362.82 3409.82L1388 3400.5L1362.82 3391.18L1353.5 3366L1344.18 3391.18ZM1353.5 3368.88L1344.96 3391.96L1321.88 3400.5L1344.96 3409.04L1353.5 3432.12L1362.04 3409.04L1385.12 3400.5L1362.04 3391.96L1353.5 3368.88Z" fill="#BCEC30" fill-opacity="1.000000" fill-rule="evenodd"/>
	<path id="Star 10" d="M1263.96 3428.96L1249 3434.5L1263.96 3440.04L1269.5 3455L1275.04 3440.04L1290 3434.5L1275.04 3428.96L1269.5 3414L1263.96 3428.96ZM1269.5 3416.88L1264.74 3429.74L1251.88 3434.5L1264.74 3439.26L1269.5 3452.12L1274.26 3439.26L1287.12 3434.5L1274.26 3429.74L1269.5 3416.88Z" fill="#BCEC30" fill-opacity="1.000000" fill-rule="evenodd"/>
</svg>
