<svg xmlns="http://www.w3.org/2000/svg" viewBox="0 0 1438.00 796.46"><path fill="#E1FF8F" id="tSvg14f16020c24" y="333.456787" width="1440.000000" height="800.000000" fill-opacity="1" title="Rectangle 1" stroke="none" stroke-opacity="1" d="M0 -3.6833H1439.998V796.3156H0Z" transform-origin="5719.998991955459 5733.316111677626" style=""/><path fill="none" stroke="#202027" fill-opacity="1" stroke-width="1" stroke-opacity="1" stroke-linecap="round" id="tSvgb8c4162829" title="Path 1" d="M1094.7885 -13.6901C1120.1918 15.7699 1145.5951 45.2298 1170.9984 74.6898C1065.3318 99.5631 959.6653 124.4364 853.9988 149.3097" style=""/><path fill="#BCEC30" stroke="none" fill-opacity="1" stroke-width="1" stroke-opacity="1" id="tSvgf82d09900f" fill-rule="nonzero" title="Path 2" d="M1562.0494 44.7447C1571.4794 47.3647 1833.889 158.3045 1833.889 158.3045C1741.0858 168.2645 1648.2826 178.2245 1555.4794 188.1845C1614.106 263.4544 1672.7326 338.7243 1731.3592 413.9942C1648.7093 362.5776 1566.0594 311.161 1483.4095 259.7444C1474.9862 346.8942 1466.5629 434.0441 1458.1395 521.194C1434.8429 429.4175 1411.5463 337.6409 1388.2496 245.8644C1310.5997 289.521 1232.9499 333.1776 1155.3 376.8342C1208.7932 312.7576 1262.2865 248.681 1315.7797 184.6045C1220.8532 180.2778 1125.9267 175.9512 1031.0001 171.6245C1120.2233 144.8712 1209.4466 118.1179 1298.6698 91.3646C1232.3699 15.008 1166.0699 -61.3485 1099.77 -137.7051C1192.9832 -93.8551 1286.1964 -50.0052 1379.4097 -6.1553C1400.7396 -90.7618 1422.0696 -175.3684 1443.3996 -259.9749C1452.9795 -175.1884 1462.5595 -90.4018 1472.1395 -5.6153C1557.0427 -64.0985 1641.946 -122.5818 1726.8492 -181.065C1671.9159 -105.7951 1616.9827 -30.5252 1562.0494 44.7447Z" style=""/><path fill="none" stroke="#202027" fill-opacity="1" stroke-width="1" stroke-opacity="1" id="tSvg180d4f358d4" title="Path 3" d="M1833.5174 158.2797C1740.7142 168.2396 1647.911 178.1996 1555.1078 188.1596C1613.7344 263.4295 1672.361 338.6994 1730.9876 413.9693C1648.3377 362.5527 1565.6878 311.1361 1483.0379 259.7195C1474.6146 346.8694 1466.1913 434.0193 1457.768 521.1691C1434.4713 429.3926 1411.1747 337.6161 1387.8781 245.8395C1310.2282 289.4961 1232.5783 333.1527 1154.9284 376.8094C1208.4216 312.7328 1261.9149 248.6562 1315.4082 184.5796C1220.4816 180.253 1125.5551 175.9263 1030.6286 171.5996C1119.8518 144.8463 1209.075 118.093 1298.2982 91.3398C1231.9983 14.9832 1165.6984 -61.3734 1099.3985 -137.7299C1192.6117 -93.88 1285.8249 -50.0301 1379.0381 -6.1801C1400.368 -90.7867 1421.698 -175.3932 1443.028 -259.9998C1452.608 -175.2132 1462.188 -90.4267 1471.7679 -5.6401C1556.6712 -64.1234 1641.5744 -122.6066 1726.4776 -181.0899C1671.5443 -105.82 1616.6111 -30.5501 1561.6778 44.7198C1571.1078 47.3398 1833.5174 158.2797 1833.5174 158.2797Z" style=""/><path fill="none" stroke="#202027" fill-opacity="1" stroke-width="1" stroke-opacity="1" stroke-linecap="round" id="tSvg5e4d7b0ce0" title="Path 4" d="M1085.0685 250.3095C1126.3784 250.3095 1167.6884 250.3095 1208.9983 250.3095C1161.665 309.9761 1114.3318 369.6427 1066.9985 429.3093" style=""/><path fill="none" stroke="#202027" fill-opacity="1" stroke-width="1" stroke-opacity="1" stroke-linecap="round" id="tSvg17d765ba8af" title="Path 5" d="M1224.9983 454.3592C1262.9182 428.0093 1300.8382 401.6593 1338.7581 375.3094C1374.1314 514.6458 1409.5047 653.9823 1444.878 793.3188" style=""/><path fill="#BCEC30" stroke="none" fill-opacity="1" stroke-width="1" stroke-opacity="1" id="tSvgaa98499981" fill-rule="nonzero" title="Path 6" d="M1303.1582 464.3092C1284.4382 483.8992 1265.7182 503.4892 1246.9983 523.0791C1273.6649 545.4891 1300.3315 567.8991 1326.9981 590.3091C1319.0515 548.3091 1311.1048 506.3092 1303.1582 464.3092Z" style=""/><path fill="none" stroke="#202027" fill-opacity="1" stroke-width="1" stroke-opacity="1" id="tSvg208992a858" title="Path 7" d="M1303.1582 464.3092C1311.1048 506.3092 1319.0515 548.3091 1326.9981 590.3091C1300.3315 567.8991 1273.6649 545.4891 1246.9983 523.0791C1265.7182 503.4892 1284.4382 483.8992 1303.1582 464.3092Z" style=""/><path fill="none" stroke="#202027" fill-opacity="1" stroke-width="1" stroke-opacity="1" stroke-linecap="round" id="tSvgca9f693876" title="Path 8" d="M1344.9981 659.309C1356.3314 700.6456 1367.6648 741.9822 1378.9981 783.3188" style=""/><path fill="#BCEC30" stroke="none" fill-opacity="1" stroke-width="1" stroke-opacity="1" fill-rule="evenodd" id="tSvg903e9ff3c" title="Path 9" d="M91.4999 90.3098C88.9332 97.2431 86.3665 104.1764 83.7999 111.1097C76.8666 113.6764 69.9332 116.2431 62.9999 118.8097C69.9332 121.3764 76.8666 123.943 83.7999 126.5097C86.3665 133.443 88.9332 140.3763 91.4999 147.3097C94.0632 140.3763 96.6265 133.443 99.1899 126.5097C106.1265 123.943 113.0632 121.3764 119.9998 118.8097C113.0632 116.2431 106.1265 113.6764 99.1899 111.1097C96.6265 104.1764 94.0632 97.2431 91.4999 90.3098Z" style=""/><path fill="#202027" stroke="none" fill-opacity="1" stroke-width="1" stroke-opacity="1" fill-rule="evenodd" id="tSvgdf878c2c7d" title="Path 10" d="M83.7999 111.1097C76.8666 113.6764 69.9332 116.2431 62.9999 118.8097C69.9332 121.3764 76.8666 123.943 83.7999 126.5097C86.3665 133.443 88.9332 140.3763 91.4999 147.3097C94.0632 140.3763 96.6265 133.443 99.1899 126.5097C106.1265 123.943 113.0632 121.3764 119.9998 118.8097C113.0632 116.2431 106.1265 113.6764 99.1899 111.1097C96.6265 104.1764 94.0632 97.2431 91.4999 90.3098C88.9332 97.2431 86.3665 104.1764 83.7999 111.1097ZM91.4999 93.1897C89.1932 99.4231 86.8865 105.6564 84.5799 111.8897C78.3466 114.1964 72.1132 116.503 65.8799 118.8097C72.1132 121.1164 78.3466 123.423 84.5799 125.7297C86.8865 131.963 89.1932 138.1964 91.4999 144.4297C93.8032 138.1964 96.1065 131.963 98.4099 125.7297C104.6432 123.423 110.8765 121.1164 117.1098 118.8097C110.8765 116.503 104.6432 114.1964 98.4099 111.8897C96.1065 105.6564 93.8032 99.4231 91.4999 93.1897Z" style=""/><path fill="#BCEC30" stroke="none" fill-opacity="1" stroke-width="1" stroke-opacity="1" fill-rule="evenodd" id="tSvg191128d7b83" title="Path 11" d="M966.4986 534.3091C964.832 538.8125 963.1653 543.3158 961.4987 547.8191C956.9987 549.4824 952.4987 551.1458 947.9987 552.8091C952.4987 554.4758 956.9987 556.1424 961.4987 557.8091C963.1653 562.3091 964.832 566.8091 966.4986 571.3091C968.162 566.8091 969.8253 562.3091 971.4886 557.8091C975.992 556.1424 980.4953 554.4758 984.9986 552.8091C980.4953 551.1458 975.992 549.4824 971.4886 547.8191C969.8253 543.3158 968.162 538.8125 966.4986 534.3091Z" style=""/><path fill="#202027" stroke="none" fill-opacity="1" stroke-width="1" stroke-opacity="1" fill-rule="evenodd" id="tSvge428280625" title="Path 12" d="M961.4987 547.8191C956.9987 549.4824 952.4987 551.1458 947.9987 552.8091C952.4987 554.4758 956.9987 556.1424 961.4987 557.8091C963.1653 562.3091 964.832 566.8091 966.4986 571.3091C968.162 566.8091 969.8253 562.3091 971.4886 557.8091C975.992 556.1424 980.4953 554.4758 984.9986 552.8091C980.4953 551.1458 975.992 549.4824 971.4886 547.8191C969.8253 543.3158 968.162 538.8125 966.4986 534.3091C964.832 538.8125 963.1653 543.3158 961.4987 547.8191ZM966.4986 537.1891C965.092 540.9891 963.6853 544.7891 962.2787 548.5891C958.4787 549.9958 954.6787 551.4024 950.8787 552.8091C954.6787 554.2158 958.4787 555.6224 962.2787 557.0291C963.6853 560.8291 965.092 564.6291 966.4986 568.4291C967.902 564.6291 969.3053 560.8291 970.7086 557.0291C974.5086 555.6224 978.3086 554.2158 982.1086 552.8091C978.3086 551.4024 974.5086 549.9958 970.7086 548.5891C969.3053 544.7891 967.902 540.9891 966.4986 537.1891Z" style=""/><path fill="#202027" stroke="none" fill-opacity="1" stroke-width="1" stroke-opacity="1" fill-rule="evenodd" id="tSvg122baa58f0e" title="Path 13" d="M168.7698 78.0898C164.5131 79.6631 160.2564 81.2364 155.9998 82.8098C160.2564 84.3864 164.5131 85.9631 168.7698 87.5398C170.3464 91.7964 171.9231 96.0531 173.4998 100.3097C175.0731 96.0531 176.6464 91.7964 178.2198 87.5398C182.4797 85.9631 186.7397 84.3864 190.9997 82.8098C186.7397 81.2364 182.4797 79.6631 178.2198 78.0898C176.6464 73.8298 175.0731 69.5698 173.4998 65.3098C171.9231 69.5698 170.3464 73.8298 168.7698 78.0898ZM173.4998 68.1898C172.1831 71.7464 170.8664 75.3031 169.5498 78.8598C165.9931 80.1764 162.4364 81.4931 158.8798 82.8098C162.4364 84.1264 165.9931 85.4431 169.5498 86.7598C170.8664 90.3164 172.1831 93.8731 173.4998 97.4297C174.8131 93.8731 176.1264 90.3164 177.4398 86.7598C180.9964 85.4431 184.5531 84.1264 188.1097 82.8098C184.5531 81.4931 180.9964 80.1764 177.4398 78.8598C176.1264 75.3031 174.8131 71.7464 173.4998 68.1898Z" style=""/></svg>