<svg xmlns="http://www.w3.org/2000/svg" viewBox="0 0 338.81 616.61"><path fill="#BCEC30" stroke="none" fill-opacity="1" stroke-width="1" stroke-opacity="1" fill-rule="evenodd" id="tSvg188754a02c4" title="Path 1" d="M17.5 92.6081C15.9234 96.8647 14.3467 101.1214 12.7701 105.378C8.5134 106.9546 4.2568 108.5313 0.0002 110.1079C4.2568 111.6813 8.5134 113.2546 12.7701 114.8279C14.3467 119.0879 15.9234 123.3478 17.5 127.6078C19.0733 123.3478 20.6466 119.0879 22.22 114.8279C26.4799 113.2546 30.7399 111.6813 34.9998 110.1079C30.7399 108.5313 26.4799 106.9546 22.22 105.378C20.6466 101.1214 19.0733 96.8647 17.5 92.6081Z" style=""/><path fill="#202027" stroke="none" fill-opacity="1" stroke-width="1" stroke-opacity="1" fill-rule="evenodd" id="tSvg10ab9d4d990" title="Path 2" d="M12.7701 105.378C8.5134 106.9546 4.2568 108.5313 0.0002 110.1079C4.2568 111.6813 8.5134 113.2546 12.7701 114.8279C14.3467 119.0879 15.9234 123.3478 17.5 127.6078C19.0733 123.3478 20.6466 119.0879 22.22 114.8279C26.4799 113.2546 30.7399 111.6813 34.9998 110.1079C30.7399 108.5313 26.4799 106.9546 22.22 105.378C20.6466 101.1214 19.0733 96.8647 17.5 92.6081C15.9234 96.8647 14.3467 101.1214 12.7701 105.378ZM17.5 95.4881C16.1834 99.0447 14.8667 102.6013 13.5501 106.158C9.9934 107.4746 6.4368 108.7913 2.8802 110.1079C6.4368 111.4213 9.9934 112.7346 13.5501 114.0479C14.8667 117.6045 16.1834 121.1612 17.5 124.7178C18.8133 121.1612 20.1267 117.6045 21.44 114.0479C24.9966 112.7346 28.5532 111.4213 32.1099 110.1079C28.5532 108.7913 24.9966 107.4746 21.44 106.158C20.1267 102.6013 18.8133 99.0447 17.5 95.4881Z" style=""/><path fill="#202027" stroke="none" fill-opacity="1" stroke-width="1" stroke-opacity="1" fill-rule="evenodd" id="tSvga16f7f7d1f" title="Path 3" d="M61.6596 67.2683C59.1063 68.215 56.553 69.1617 53.9997 70.1083C56.553 71.0516 59.1063 71.995 61.6596 72.9383C62.6063 75.4949 63.5529 78.0516 64.4996 80.6082C65.4429 78.0516 66.3862 75.4949 67.3295 72.9383C69.8862 71.995 72.4428 71.0516 74.9995 70.1083C72.4428 69.1617 69.8862 68.215 67.3295 67.2683C66.3862 64.715 65.4429 62.1617 64.4996 59.6084C63.5529 62.1617 62.6063 64.715 61.6596 67.2683ZM64.4996 62.4884C63.8129 64.3417 63.1262 66.195 62.4396 68.0483C60.5863 68.735 58.733 69.4217 56.8796 70.1083C58.733 70.7916 60.5863 71.475 62.4396 72.1583C63.1262 74.0116 63.8129 75.8649 64.4996 77.7182C65.1829 75.8649 65.8662 74.0116 66.5496 72.1583C68.4029 71.475 70.2562 70.7916 72.1095 70.1083C70.2562 69.4217 68.4029 68.735 66.5496 68.0483C65.8662 66.195 65.1829 64.3417 64.4996 62.4884Z" style=""/><path fill="#BCEC30" stroke="none" fill-opacity="1" stroke-width="1" stroke-opacity="1" fill-rule="evenodd" id="tSvg8b1c971a10" title="Path 4" d="M243.9979 552.6038C243.1846 554.7937 242.3712 556.9837 241.5579 559.1737C239.3713 559.9837 237.1846 560.7937 234.998 561.6037C237.1846 562.4137 239.3713 563.2237 241.5579 564.0337C242.3712 566.2236 243.1846 568.4136 243.9979 570.6036C244.8079 568.4136 245.6179 566.2236 246.4279 564.0337C248.6178 563.2237 250.8078 562.4137 252.9978 561.6037C250.8078 560.7937 248.6178 559.9837 246.4279 559.1737C245.6179 556.9837 244.8079 554.7937 243.9979 552.6038Z" style=""/><path fill="#202027" stroke="none" fill-opacity="1" stroke-width="1" stroke-opacity="1" fill-rule="evenodd" id="tSvg77b78eea1e" title="Path 5" d="M241.5579 559.1737C239.3713 559.9837 237.1846 560.7937 234.998 561.6037C237.1846 562.4137 239.3713 563.2237 241.5579 564.0337C242.3712 566.2236 243.1846 568.4136 243.9979 570.6036C244.8079 568.4136 245.6179 566.2236 246.4279 564.0337C248.6178 563.2237 250.8078 562.4137 252.9978 561.6037C250.8078 560.7937 248.6178 559.9837 246.4279 559.1737C245.6179 556.9837 244.8079 554.7937 243.9979 552.6038C243.1846 554.7937 242.3712 556.9837 241.5579 559.1737ZM243.9979 555.4837C243.4445 556.9704 242.8912 558.457 242.3379 559.9437C240.8512 560.497 239.3646 561.0504 237.8779 561.6037C239.3646 562.1537 240.8512 562.7037 242.3379 563.2537C242.8912 564.7403 243.4445 566.227 243.9979 567.7136C244.5479 566.227 245.0979 564.7403 245.6479 563.2537C247.1345 562.7037 248.6212 562.1537 250.1078 561.6037C248.6212 561.0504 247.1345 560.497 245.6479 559.9437C245.0979 558.457 244.5479 556.9704 243.9979 555.4837Z" style=""/><path fill="#202027" stroke="none" fill-opacity="1" stroke-width="1" stroke-opacity="1" fill-rule="evenodd" id="tSvgfa413d45e5" title="Path 6" d="M280.2275 590.5634C275.4842 592.4101 270.741 594.2567 265.9977 596.1034C270.741 597.9467 275.4842 599.79 280.2275 601.6333C281.9842 606.6233 283.7408 611.6132 285.4975 616.6032C287.2508 611.6132 289.0041 606.6233 290.7574 601.6333C295.5041 599.79 300.2507 597.9467 304.9973 596.1034C300.2507 594.2567 295.5041 592.4101 290.7574 590.5634C289.0041 585.5768 287.2508 580.5902 285.4975 575.6036C283.7408 580.5902 281.9842 585.5768 280.2275 590.5634ZM285.4975 578.6135C284.0042 582.8501 282.5108 587.0868 281.0175 591.3234C276.9276 592.9167 272.8376 594.51 268.7476 596.1034C272.8376 597.6933 276.9276 599.2833 281.0175 600.8733C282.5108 605.1099 284.0042 609.3466 285.4975 613.5832C286.9875 609.3466 288.4775 605.1099 289.9674 600.8733C294.0574 599.2833 298.1474 597.6933 302.2373 596.1034C298.1474 594.51 294.0574 592.9167 289.9674 591.3234C288.4775 587.0868 286.9875 582.8501 285.4975 578.6135Z" style=""/><path fill="#BCEC30" stroke="none" fill-opacity="1" stroke-width="1" stroke-opacity="1" id="tSvg29386b0e6f" fill-rule="nonzero" title="Path 7" d="M341.217 5.7089C344.0669 6.4989 423.2762 39.5286 423.2762 39.5286C395.2631 42.4952 367.25 45.4619 339.237 48.4285C356.9335 70.845 374.63 93.2614 392.3265 115.6779C367.3767 100.3647 342.4269 85.0515 317.4772 69.7383C314.9339 95.6914 312.3906 121.6445 309.8473 147.5976C302.8173 120.2678 295.7874 92.9381 288.7575 65.6084C265.3177 78.6082 241.8779 91.6081 218.4381 104.608C234.5846 85.5248 250.7311 66.4417 266.8777 47.3585C238.2213 46.0719 209.5649 44.7852 180.9085 43.4986C207.8449 35.532 234.7813 27.5654 261.7177 19.5988C241.7012 -3.141 221.6848 -25.8808 201.6683 -48.6206C229.808 -35.5607 257.9477 -22.5008 286.0875 -9.4409C292.5241 -34.6374 298.9607 -59.8338 305.3973 -85.0302C308.2906 -59.7805 311.1839 -34.5307 314.0772 -9.2809C339.707 -26.6974 365.3367 -44.1139 390.9665 -61.5304C374.3833 -39.1173 357.8001 -16.7042 341.217 5.7089Z" style=""/><path fill="none" stroke="#202027" fill-opacity="1" stroke-width="1" stroke-opacity="1" id="tSvg149a09ed0b0" title="Path 8" d="M423.2762 39.5286C395.2631 42.4952 367.25 45.4619 339.237 48.4285C356.9335 70.845 374.63 93.2614 392.3265 115.6779C367.3767 100.3647 342.4269 85.0515 317.4772 69.7383C314.9339 95.6914 312.3906 121.6445 309.8473 147.5976C302.8173 120.2678 295.7874 92.9381 288.7575 65.6084C265.3177 78.6082 241.8779 91.6081 218.4381 104.608C234.5846 85.5248 250.7311 66.4417 266.8777 47.3585C238.2213 46.0719 209.5649 44.7852 180.9085 43.4986C207.8449 35.532 234.7813 27.5654 261.7177 19.5988C241.7012 -3.141 221.6848 -25.8808 201.6683 -48.6206C229.808 -35.5607 257.9477 -22.5008 286.0875 -9.4409C292.5241 -34.6374 298.9607 -59.8338 305.3973 -85.0302C308.2906 -59.7805 311.1839 -34.5307 314.0772 -9.2809C339.707 -26.6974 365.3367 -44.1139 390.9665 -61.5304C374.3833 -39.1173 357.8001 -16.7042 341.217 5.7089C344.0669 6.4989 423.2762 39.5286 423.2762 39.5286Z" style=""/></svg>